<svg width="220" height="523" viewBox="0 0 220 523" fill="none" xmlns="http://www.w3.org/2000/svg">
<!--    <path id="head" d="M110.13 298.756C109.393 307.818 118.307 355.924 121.475 374.71C122.948 383.624 127.148 398.064 125.601 405.799C123.464 416.555 122.875 430.405 124.053 438.509C124.79 443.445 127.148 466.061 123.759 474.312C121.991 478.659 118.823 500.907 118.823 500.907C110.498 521.903 115.213 520.798 115.213 520.798C117.792 523.966 122.212 521.019 122.212 521.019C125.601 523.156 127.884 520.503 127.884 520.503C130.757 522.861 134.146 520.209 134.146 520.209C137.756 522.051 141.145 518.662 141.145 518.662C143.208 519.693 143.723 518.367 143.723 518.367C149.985 517.999 140.261 498.034 140.261 498.034C137.903 480.132 142.545 470.187 142.545 470.187C157.721 425.174 158.457 413.24 152.416 396.296C150.722 391.433 150.28 389.444 151.09 387.308C152.932 382.372 151.606 362.702 153.816 354.819C158.089 339.717 162.288 301.409 164.498 283.507C167.445 259.417 154.037 227.149 154.037 227.149C151.09 214.036 155.437 167.182 155.437 167.182C161.478 176.538 161.257 193.04 161.257 193.04C160.299 210.352 175.254 236.874 175.254 236.874C182.474 247.85 185.2 258.238 185.2 258.975C185.2 262.142 184.537 269.73 184.537 269.73L184.831 276.361C184.979 278.055 185.936 283.875 185.789 286.675C184.684 303.987 187.41 300.746 187.41 300.746C189.767 300.746 192.272 286.822 192.272 286.822C192.272 290.432 191.388 301.188 193.303 305.239C195.661 310.102 197.355 304.429 197.355 303.25C197.945 281.149 199.271 286.969 199.271 286.969C200.597 304.871 202.144 308.923 205.017 307.523C207.153 306.492 205.238 286.012 205.238 286.012C208.921 298.167 211.721 300.083 211.721 300.083C217.835 304.355 214.078 292.568 213.194 290.211C208.7 277.76 208.553 273.488 208.553 273.488C214.152 284.685 218.425 284.243 218.425 284.243C223.95 282.475 213.636 266.636 207.595 259.122C204.501 255.291 200.523 250.061 199.418 247.04C197.576 241.809 196.103 225.086 196.103 225.086C195.513 205.343 190.651 196.797 190.651 196.797C182.326 183.463 180.706 158.562 180.706 158.562L180.337 116.497C177.391 87.8389 156.321 87.6179 156.321 87.6179C134.957 84.4501 132.01 77.5251 132.01 77.5251C127.516 71.0422 130.094 58.5182 130.094 58.5182C133.852 55.4978 135.325 47.394 135.325 47.394C141.587 42.6055 141.219 35.6068 138.345 35.6805C136.062 35.7542 136.577 33.8387 136.577 33.8387C140.187 2.52895 112.266 0.908203 112.266 0.908203H107.993C107.993 0.908203 79.9987 2.52895 83.9032 33.9861C83.9032 33.9861 84.4189 35.9015 82.0615 35.8278C79.1884 35.7542 78.8937 42.7528 85.1556 47.5414C85.1556 47.5414 86.629 55.6451 90.3862 58.6656C90.3862 58.6656 92.9647 71.1158 88.4708 77.6725C88.4708 77.6725 85.524 84.5975 64.1597 87.7653C64.1597 87.7653 43.0163 87.9863 40.1432 116.644L39.7749 158.71C39.7749 158.71 38.2278 183.61 29.8294 196.944C29.8294 196.944 24.9672 205.49 24.3778 225.234C24.3778 225.234 22.9781 241.957 21.0627 247.187C19.9576 250.208 15.9794 255.438 12.8853 259.269C6.77065 266.784 -3.46949 282.623 1.9821 284.391C1.9821 284.391 6.25496 284.833 11.8539 273.635C11.8539 273.635 11.7066 277.908 7.21267 290.358C6.32863 292.642 2.57146 304.503 8.68608 300.23C8.68608 300.23 11.4855 298.314 15.169 286.159C15.169 286.159 13.18 306.639 15.3901 307.671C18.2632 309.07 19.8103 305.018 21.1363 287.117C21.1363 287.117 22.4624 281.297 23.0517 303.398C23.0517 304.503 24.7462 310.249 27.1036 305.387C29.0927 301.335 28.2087 290.579 28.2087 286.969C28.2087 286.969 30.7134 300.893 33.0709 300.893C33.0709 300.893 35.8703 304.134 34.6916 286.822C34.4706 284.022 35.502 278.203 35.6493 276.508L35.944 269.878C35.944 269.878 35.281 262.29 35.281 259.122C35.281 258.312 38.0068 247.998 45.2264 237.021C45.2264 237.021 60.1815 210.5 59.2238 193.187C59.2238 193.187 59.0028 176.685 65.0437 167.329C65.0437 167.329 69.3166 214.183 66.4434 227.296C66.4434 227.296 53.0355 259.564 55.9823 283.654C58.1924 301.556 62.3916 339.864 66.6644 354.967C68.8745 362.776 67.5485 382.519 69.3902 387.455C70.2006 389.592 69.7586 391.581 68.0642 396.443C62.0232 413.387 62.8336 425.322 78.0096 470.334C78.0096 470.334 82.6509 480.28 80.2934 498.181C80.2934 498.181 70.569 518.146 76.8309 518.514C76.8309 518.514 77.3466 519.84 79.4094 518.809C79.4094 518.809 82.7982 522.272 86.408 520.356C86.408 520.356 89.7969 523.008 92.5963 520.651C92.5963 520.651 94.8801 523.303 98.2689 521.167C98.2689 521.167 102.689 524.113 105.268 520.946C105.268 520.946 109.909 521.977 101.658 501.055C101.658 501.055 98.4899 478.806 96.7218 474.46C93.4067 466.209 95.7641 443.518 96.4272 438.656C97.6059 430.552 96.9429 416.702 94.8801 405.946C93.333 398.285 97.5322 383.772 99.0056 374.858C102.026 355.924 110.13 298.756 110.13 298.756Z" fill="white" fill-opacity="0.13"/>-->
    <path id="F4" d="M88.8094 93.7248C88.8094 93.7248 56.0579 78.0927 44.7179 104.046C39.933 113.983 42.8039 143.927 42.9513 145.398C43.0242 146.355 52.3729 125.23 60.3964 120.74C61.7946 120.004 60.028 99.4666 88.8094 93.7248Z" fill="white" fill-opacity="0.25"/>
    <path id="F1" d="M131.721 93.725C131.721 93.725 163.261 77.0313 176.29 104.046C181.075 113.984 177.727 143.927 177.58 145.399C177.506 146.356 168.157 125.23 160.134 120.74C158.736 120.004 160.502 99.4668 131.721 93.725Z" fill="white" fill-opacity="0.25"/>
    <path id="F5" d="M61.8759 121.432C61.8759 121.432 64.6754 164.455 61.4339 166.371C57.6767 168.581 55.6877 189.798 55.6877 189.798C55.6877 189.798 53.7722 184.42 51.6358 184.641C49.4994 184.862 45.4475 188.914 44.5635 190.387C43.7531 191.787 31.2292 146.038 61.8759 121.432Z" fill="white" fill-opacity="0.25"/>
    <path id="F9" d="M160.005 127.031C160.005 127.031 157.205 170.055 160.52 171.97C164.278 174.18 166.267 195.397 166.267 195.397C166.267 195.397 168.182 190.019 170.319 190.24C172.455 190.461 176.507 194.513 177.391 195.986C178.201 197.386 190.725 151.637 160.005 127.031Z" fill="white" fill-opacity="0.25"/>
    <path id="F3" d="M104.974 98.8892C104.163 109.129 110.131 121.801 110.204 129.462C110.278 139.776 109.394 148.175 91.0501 150.237C76.3898 151.858 73.0746 145.817 68.2861 142.723C65.3393 140.808 64.3816 121.285 61.7294 118.338C59.8877 116.349 71.9696 95.5004 88.6927 95.6477C105.489 95.7951 105.195 96.6791 104.974 98.8892Z" fill="white" fill-opacity="0.25"/>
    <path id="F2" d="M115.438 98.8892C116.249 109.129 110.281 121.801 110.208 129.462C110.134 139.776 111.018 148.175 129.362 150.237C144.022 151.858 147.337 145.817 152.126 142.723C155.073 140.808 156.031 121.285 158.756 118.338C160.598 116.349 148.516 95.5004 131.793 95.6477C114.996 95.7951 115.291 96.6791 115.438 98.8892Z" fill="white" fill-opacity="0.25"/>
    <path id="F6" d="M89.5037 157.089C89.5037 157.089 93.1135 238.568 89.5037 241.515C85.9675 244.461 85.2308 225.233 72.1175 223.097C69.6864 222.655 71.6755 178.969 65.8556 168.508C59.962 158.046 86.9989 153.7 89.5037 157.089Z" fill="white" fill-opacity="0.25"/>
    <path id="F8" d="M130.245 157.089C130.245 157.089 126.635 238.568 130.245 241.515C133.781 244.461 134.518 225.233 147.631 223.097C150.062 222.655 148.073 178.969 153.893 168.508C159.787 158.046 132.75 153.7 130.245 157.089Z" fill="white" fill-opacity="0.25"/>
    <path id="F18" d="M78.2073 241.532C78.2073 241.532 105.516 302.038 103.455 330.378C101.394 358.717 98.1992 367.938 98.1992 375.152C98.1992 382.366 100.29 364.974 91.2359 364.9C80.6362 364.827 72.7601 373.439 69.8892 382.861C69.4479 384.186 68.4173 355.993 68.4173 355.993C68.4173 355.993 65.3401 348.191 62.8375 322.134C59.0833 282.532 87.5553 268.325 78.2073 241.532Z" fill="white" fill-opacity="0.25"/>
    <path id="F19" d="M141.655 241.532C141.655 241.532 113.316 302.038 115.377 330.378C118.304 352.085 122.508 367.938 122.508 375.152C122.508 382.366 121.634 364.974 130.688 364.9C141.288 364.827 147.103 373.439 149.973 382.861C150.415 384.186 152.181 355.993 152.181 355.993C152.181 355.993 155.367 346.694 157.869 320.636C161.55 281.035 132.234 268.325 141.655 241.532Z" fill="white" fill-opacity="0.25"/>
    <path id="F20" d="M92.8948 391.212C92.8948 391.212 92.8948 400.347 88.8429 404.694C84.7911 409.04 73.1512 408.083 71.6041 391.212C70.057 374.415 83.244 367.638 92.8948 381.635C92.8948 381.635 93.8525 383.845 92.8948 391.212Z" fill="white" fill-opacity="0.25"/>
    <path id="F21" d="M126.559 391.212C126.559 391.212 126.559 400.347 130.611 404.694C134.663 409.04 146.303 408.083 147.85 391.212C149.397 374.415 136.21 367.638 126.559 381.635C126.559 381.635 125.528 383.845 126.559 391.212Z" fill="white" fill-opacity="0.25"/>
    <path id="F22" d="M69.9795 415.008C69.9795 415.008 81.8404 403.957 91.7858 417.439C91.7858 417.439 85.3765 468.713 89.5021 482.269C89.5757 482.195 74.6207 447.349 69.9795 415.008Z" fill="white" fill-opacity="0.25"/>
    <path id="F23" d="M150.873 415.008C150.873 415.008 139.012 403.957 129.067 417.439C129.067 417.439 135.476 468.713 131.351 482.269C131.351 482.195 146.306 447.349 150.873 415.008Z" fill="white" fill-opacity="0.25"/>
    <path id="F16" d="M17.8975 255.371C17.8975 255.371 21.886 262.29 34.1049 259.052L35.1444 254.856C35.1444 254.856 28.2989 253.31 28.9612 244.55C28.9612 244.55 25.7028 252.795 20.8443 250.733L17.8975 255.371Z" fill="white" fill-opacity="0.25"/>
    <path id="F17" d="M204.281 258.462C204.281 258.462 199.85 267.001 186.601 263.468V259.051C186.601 259.051 193.55 256.769 192.887 247.126C192.887 247.126 197.598 257.137 202.898 254.856L204.281 258.462Z" fill="white" fill-opacity="0.25"/>
    <path id="F10" d="M36.3913 192.008C36.3913 192.008 50.5359 195.618 53.6301 205.122C53.6301 205.122 48.5469 223.465 34.9915 244.756C34.9915 244.756 32.7814 245.787 26.4458 241.809C26.3721 241.736 30.424 202.543 36.3913 192.008Z" fill="white" fill-opacity="0.25"/>
    <path id="F15" d="M184.173 195.25C184.173 195.25 170.028 198.86 166.934 208.363C166.934 208.363 172.017 226.707 185.573 247.998C185.573 247.998 187.783 249.029 194.118 245.051C194.192 244.977 190.14 205.711 184.173 195.25Z" fill="white" fill-opacity="0.25"/>
    <path id="F14" d="M150.504 229.507L140.558 238.937C140.558 238.937 165.238 272.678 163.543 281.518C163.543 281.518 166.711 248.219 150.504 229.507Z" fill="white" fill-opacity="0.25"/>
    <path id="F11" d="M67.9735 230.933L77.6899 240.354C77.6899 240.354 57.4984 271.779 58.4156 282.827C58.4156 282.9 52.2988 262.824 67.9735 230.933Z" fill="white" fill-opacity="0.25"/>
    <path id="F12" d="M84.9043 244.329C84.9043 244.329 105.515 307.316 105.073 324.32L107.775 302.628L109.858 276.865C109.858 276.865 101.908 250.439 86.8183 241.164C86.892 241.164 84.3894 240.722 84.9043 244.329Z" fill="white" fill-opacity="0.25"/>
    <path id="F13" d="M135.546 244.771C135.546 244.771 114.183 307.243 114.404 324.32L111.457 302.628L110.666 276.434C110.666 276.434 118.468 250.733 133.632 241.605C133.632 241.605 136.135 241.164 135.546 244.771Z" fill="white" fill-opacity="0.25"/>
    <path id="F7" d="M91.127 155.837C91.127 155.837 109.987 133.293 128.699 155.837C128.699 155.837 129.951 226.928 125.015 244.977C125.015 244.977 109.913 257.722 94.5158 244.977C94.4421 245.051 90.0219 210.868 91.127 155.837Z" fill="white" fill-opacity="0.25"/>
    <path id="F26" d="M102.617 84.8919C99.0122 90.9704 83.8274 89.4572 79.0425 86.3653C95.8076 88.7986 95.6897 61.411 93.0398 58.4664C95.0458 57.1411 105.71 73.9556 102.617 84.8919Z" fill="white" fill-opacity="0.25"/>
    <path id="F27" d="M117.618 84.8919C122.83 90.0024 135.55 89.4572 140.335 86.3653C123.57 88.7986 123.688 61.411 126.338 58.4664C124.331 57.1411 114.524 73.9556 117.618 84.8919Z" fill="white" fill-opacity="0.25"/>
    <path id="F24" d="M84.9072 487.131C84.9072 487.131 89.0909 478.398 96.7275 486.161C96.7275 486.161 97.9976 507.689 103.358 515.862C103.358 515.862 84.4924 518.778 78.2091 514.389C78.1789 514.414 84.4563 506.082 84.9072 487.131Z" fill="white" fill-opacity="0.25"/>
    <path id="F25" d="M135.831 487.131C135.831 487.131 131.647 478.398 124.01 486.161C124.01 486.161 122.74 507.689 117.38 515.862C117.38 515.862 136.245 518.778 142.529 514.389C142.559 514.414 136.281 506.082 135.831 487.131Z" fill="white" fill-opacity="0.25"/>
</svg>
